<mxfile host="app.diagrams.net" modified="2024-06-03T02:10:35.683Z" agent="Mozilla/5.0 (Windows NT 10.0; Win64; x64) AppleWebKit/537.36 (KHTML, like Gecko) Chrome/125.0.0.0 Safari/537.36 Edg/125.0.0.0" etag="Bh8HbyGNBZvZaQIWNSkt" version="24.4.13" type="device">
  <diagram name="Page-1" id="ezT19UBOzeM8hbLXeuVA">
    <mxGraphModel dx="1426" dy="785" grid="1" gridSize="10" guides="1" tooltips="1" connect="1" arrows="1" fold="1" page="1" pageScale="1" pageWidth="1654" pageHeight="2336" math="0" shadow="0">
      <root>
        <mxCell id="0" />
        <mxCell id="1" parent="0" />
        <mxCell id="KIe1Nf1kpFy4A9aI_nfE-39" value="" style="rounded=0;whiteSpace=wrap;html=1;fillColor=#d5e8d4;strokeColor=#82b366;" parent="1" vertex="1">
          <mxGeometry x="1202.5" y="278.13" width="270" height="205" as="geometry" />
        </mxCell>
        <mxCell id="KIe1Nf1kpFy4A9aI_nfE-5" value="" style="rounded=0;whiteSpace=wrap;html=1;dashed=1;dashPattern=8 8;fillColor=none;" parent="1" vertex="1">
          <mxGeometry x="95" y="192.5" width="150" height="210" as="geometry" />
        </mxCell>
        <mxCell id="KIe1Nf1kpFy4A9aI_nfE-2" value="Data&lt;div&gt;Source&lt;/div&gt;" style="strokeWidth=2;html=1;shape=mxgraph.flowchart.database;whiteSpace=wrap;fillColor=#CCE5FF;" parent="1" vertex="1">
          <mxGeometry x="125" y="232.5" width="90" height="130" as="geometry" />
        </mxCell>
        <mxCell id="KIe1Nf1kpFy4A9aI_nfE-6" value="Input" style="text;html=1;align=center;verticalAlign=middle;resizable=0;points=[];autosize=1;strokeColor=none;fillColor=none;fontSize=18;" parent="1" vertex="1">
          <mxGeometry x="140" y="120" width="60" height="40" as="geometry" />
        </mxCell>
        <mxCell id="KIe1Nf1kpFy4A9aI_nfE-7" value="" style="rounded=0;whiteSpace=wrap;html=1;rotation=-90;fillColor=#CCE5FF;" parent="1" vertex="1">
          <mxGeometry x="276.88" y="243.13" width="346.25" height="200" as="geometry" />
        </mxCell>
        <mxCell id="KIe1Nf1kpFy4A9aI_nfE-8" value="Data Preprocessing" style="text;html=1;align=center;verticalAlign=middle;resizable=0;points=[];autosize=1;strokeColor=none;fillColor=none;fontSize=18;" parent="1" vertex="1">
          <mxGeometry x="360" y="120" width="180" height="40" as="geometry" />
        </mxCell>
        <mxCell id="KIe1Nf1kpFy4A9aI_nfE-9" value="&lt;font style=&quot;font-size: 18px;&quot;&gt;Exploratory Data Analysis&lt;/font&gt;" style="text;html=1;align=center;verticalAlign=middle;resizable=0;points=[];autosize=1;strokeColor=none;fillColor=none;" parent="1" vertex="1">
          <mxGeometry x="620" y="120" width="230" height="40" as="geometry" />
        </mxCell>
        <mxCell id="KIe1Nf1kpFy4A9aI_nfE-10" value="" style="rounded=0;whiteSpace=wrap;html=1;rotation=-90;fillColor=#D5E8D4;" parent="1" vertex="1">
          <mxGeometry x="857.5" y="244.5" width="345" height="200" as="geometry" />
        </mxCell>
        <mxCell id="KIe1Nf1kpFy4A9aI_nfE-14" value="Model Selection" style="rounded=0;whiteSpace=wrap;html=1;fillColor=#dae8fc;gradientColor=#7ea6e0;strokeColor=#6c8ebf;" parent="1" vertex="1">
          <mxGeometry x="970" y="205" width="120" height="60" as="geometry" />
        </mxCell>
        <mxCell id="KIe1Nf1kpFy4A9aI_nfE-15" value="Data Cleaning" style="rounded=0;whiteSpace=wrap;html=1;fillColor=#d5e8d4;gradientColor=#97d077;strokeColor=#82b366;" parent="1" vertex="1">
          <mxGeometry x="390" y="278.13" width="120" height="60" as="geometry" />
        </mxCell>
        <mxCell id="KIe1Nf1kpFy4A9aI_nfE-16" value="Train Test Split" style="rounded=0;whiteSpace=wrap;html=1;fillColor=#d5e8d4;gradientColor=#97d077;strokeColor=#82b366;" parent="1" vertex="1">
          <mxGeometry x="390" y="432.5" width="120" height="60" as="geometry" />
        </mxCell>
        <mxCell id="KIe1Nf1kpFy4A9aI_nfE-17" value="Data Scaling &amp;amp;&lt;div&gt;Normalization&lt;/div&gt;" style="rounded=0;whiteSpace=wrap;html=1;fillColor=#d5e8d4;gradientColor=#97d077;strokeColor=#82b366;" parent="1" vertex="1">
          <mxGeometry x="390" y="351" width="120" height="60" as="geometry" />
        </mxCell>
        <mxCell id="KIe1Nf1kpFy4A9aI_nfE-19" value="Data Integration" style="rounded=0;whiteSpace=wrap;html=1;fillColor=#d5e8d4;gradientColor=#97d077;strokeColor=#82b366;" parent="1" vertex="1">
          <mxGeometry x="390" y="205" width="120" height="60" as="geometry" />
        </mxCell>
        <mxCell id="KIe1Nf1kpFy4A9aI_nfE-23" value="" style="shape=mxgraph.signs.healthcare.eye;html=1;pointerEvents=1;fillColor=#000000;strokeColor=#6c8ebf;verticalLabelPosition=bottom;verticalAlign=top;align=center;sketch=0;gradientColor=#CCE5FF;" parent="1" vertex="1">
          <mxGeometry x="1400" y="220" width="72.5" height="45" as="geometry" />
        </mxCell>
        <mxCell id="KIe1Nf1kpFy4A9aI_nfE-24" value="" style="sketch=0;pointerEvents=1;shadow=0;dashed=0;html=1;strokeColor=none;fillColor=#CCE5FF;aspect=fixed;labelPosition=center;verticalLabelPosition=bottom;verticalAlign=top;align=center;outlineConnect=0;shape=mxgraph.vvd.vrealize_log_insight;gradientColor=default;" parent="1" vertex="1">
          <mxGeometry x="670" y="215" width="130" height="130" as="geometry" />
        </mxCell>
        <mxCell id="KIe1Nf1kpFy4A9aI_nfE-25" value="Hyperparamenter tuning" style="rounded=0;whiteSpace=wrap;html=1;fillColor=#dae8fc;gradientColor=#7ea6e0;strokeColor=#6c8ebf;" parent="1" vertex="1">
          <mxGeometry x="970" y="280" width="120" height="60" as="geometry" />
        </mxCell>
        <mxCell id="KIe1Nf1kpFy4A9aI_nfE-26" value="Model Training" style="rounded=0;whiteSpace=wrap;html=1;fillColor=#dae8fc;gradientColor=#7ea6e0;strokeColor=#6c8ebf;" parent="1" vertex="1">
          <mxGeometry x="970" y="360" width="120" height="60" as="geometry" />
        </mxCell>
        <mxCell id="KIe1Nf1kpFy4A9aI_nfE-27" value="Model Evaluation" style="rounded=0;whiteSpace=wrap;html=1;fillColor=#dae8fc;gradientColor=#7ea6e0;strokeColor=#6c8ebf;" parent="1" vertex="1">
          <mxGeometry x="970" y="440" width="120" height="60" as="geometry" />
        </mxCell>
        <mxCell id="KIe1Nf1kpFy4A9aI_nfE-28" value="&lt;font style=&quot;font-size: 15px;&quot;&gt;Data Visualization &amp;amp; statistics&lt;/font&gt;" style="text;html=1;align=center;verticalAlign=middle;resizable=0;points=[];autosize=1;strokeColor=none;fillColor=none;" parent="1" vertex="1">
          <mxGeometry x="630" y="386.88" width="220" height="30" as="geometry" />
        </mxCell>
        <mxCell id="KIe1Nf1kpFy4A9aI_nfE-29" value="" style="rounded=0;whiteSpace=wrap;html=1;" parent="1" vertex="1">
          <mxGeometry x="1280" y="330" width="90" height="70" as="geometry" />
        </mxCell>
        <mxCell id="KIe1Nf1kpFy4A9aI_nfE-31" value="xmin,ymin" style="text;html=1;align=center;verticalAlign=middle;whiteSpace=wrap;rounded=0;" parent="1" vertex="1">
          <mxGeometry x="1202.5" y="410" width="60" height="30" as="geometry" />
        </mxCell>
        <mxCell id="KIe1Nf1kpFy4A9aI_nfE-32" value="xmax,ymax" style="text;html=1;align=center;verticalAlign=middle;whiteSpace=wrap;rounded=0;" parent="1" vertex="1">
          <mxGeometry x="1400" y="295" width="60" height="25" as="geometry" />
        </mxCell>
        <mxCell id="KIe1Nf1kpFy4A9aI_nfE-34" value="" style="endArrow=classic;html=1;rounded=0;entryX=0;entryY=1;entryDx=0;entryDy=0;" parent="1" source="KIe1Nf1kpFy4A9aI_nfE-31" target="KIe1Nf1kpFy4A9aI_nfE-29" edge="1">
          <mxGeometry width="50" height="50" relative="1" as="geometry">
            <mxPoint x="1262.5" y="400" as="sourcePoint" />
            <mxPoint x="1312.5" y="350" as="targetPoint" />
          </mxGeometry>
        </mxCell>
        <mxCell id="KIe1Nf1kpFy4A9aI_nfE-35" value="" style="endArrow=classic;html=1;rounded=0;entryX=0;entryY=1;entryDx=0;entryDy=0;" parent="1" target="KIe1Nf1kpFy4A9aI_nfE-32" edge="1">
          <mxGeometry width="50" height="50" relative="1" as="geometry">
            <mxPoint x="1380" y="330" as="sourcePoint" />
            <mxPoint x="1430" y="280" as="targetPoint" />
          </mxGeometry>
        </mxCell>
        <mxCell id="KIe1Nf1kpFy4A9aI_nfE-36" value="&lt;font style=&quot;font-size: 10px;&quot;&gt;SCORE&lt;/font&gt;" style="rounded=0;whiteSpace=wrap;html=1;" parent="1" vertex="1">
          <mxGeometry x="1280" y="329" width="40" height="22" as="geometry" />
        </mxCell>
        <mxCell id="KIe1Nf1kpFy4A9aI_nfE-37" value="" style="shape=image;html=1;verticalAlign=top;verticalLabelPosition=bottom;labelBackgroundColor=#ffffff;imageAspect=0;aspect=fixed;image=https://cdn1.iconfinder.com/data/icons/icons-for-a-site-1/64/advantage_eco_friendly-128.png" parent="1" vertex="1">
          <mxGeometry x="1306" y="351" width="49" height="49" as="geometry" />
        </mxCell>
        <mxCell id="KIe1Nf1kpFy4A9aI_nfE-47" value="" style="rounded=0;whiteSpace=wrap;html=1;" parent="1" vertex="1">
          <mxGeometry x="1300" y="427.5" width="60" height="52.5" as="geometry" />
        </mxCell>
        <mxCell id="KIe1Nf1kpFy4A9aI_nfE-42" value="" style="shape=image;html=1;verticalAlign=top;verticalLabelPosition=bottom;labelBackgroundColor=#ffffff;imageAspect=0;aspect=fixed;image=https://cdn1.iconfinder.com/data/icons/icons-for-a-site-1/64/advantage_eco_friendly-128.png" parent="1" vertex="1">
          <mxGeometry x="1310" y="432.5" width="39.5" height="39.5" as="geometry" />
        </mxCell>
        <mxCell id="KIe1Nf1kpFy4A9aI_nfE-48" value="" style="rounded=0;whiteSpace=wrap;html=1;" parent="1" vertex="1">
          <mxGeometry x="1395" y="416.88" width="70" height="66.25" as="geometry" />
        </mxCell>
        <mxCell id="KIe1Nf1kpFy4A9aI_nfE-43" value="" style="shape=image;html=1;verticalAlign=top;verticalLabelPosition=bottom;labelBackgroundColor=#ffffff;imageAspect=0;aspect=fixed;image=https://cdn1.iconfinder.com/data/icons/icons-for-a-site-1/64/advantage_eco_friendly-128.png" parent="1" vertex="1">
          <mxGeometry x="1405.5" y="421" width="49" height="49" as="geometry" />
        </mxCell>
        <mxCell id="KIe1Nf1kpFy4A9aI_nfE-49" value="" style="rounded=0;whiteSpace=wrap;html=1;" parent="1" vertex="1">
          <mxGeometry x="1210" y="320" width="50" height="50" as="geometry" />
        </mxCell>
        <mxCell id="KIe1Nf1kpFy4A9aI_nfE-44" value="" style="shape=image;html=1;verticalAlign=top;verticalLabelPosition=bottom;labelBackgroundColor=#ffffff;imageAspect=0;aspect=fixed;image=https://cdn1.iconfinder.com/data/icons/icons-for-a-site-1/64/advantage_eco_friendly-128.png" parent="1" vertex="1">
          <mxGeometry x="1210" y="320" width="49" height="49" as="geometry" />
        </mxCell>
        <mxCell id="KIe1Nf1kpFy4A9aI_nfE-50" value="" style="rounded=0;whiteSpace=wrap;html=1;" parent="1" vertex="1">
          <mxGeometry x="1400" y="340" width="60" height="63.12" as="geometry" />
        </mxCell>
        <mxCell id="KIe1Nf1kpFy4A9aI_nfE-41" value="" style="shape=image;html=1;verticalAlign=top;verticalLabelPosition=bottom;labelBackgroundColor=#ffffff;imageAspect=0;aspect=fixed;image=https://cdn1.iconfinder.com/data/icons/icons-for-a-site-1/64/advantage_eco_friendly-128.png" parent="1" vertex="1">
          <mxGeometry x="1405.5" y="345.5" width="49" height="49" as="geometry" />
        </mxCell>
        <mxCell id="KIe1Nf1kpFy4A9aI_nfE-51" value="&lt;span style=&quot;font-size: 18px;&quot;&gt;Model Building&lt;/span&gt;" style="text;html=1;align=center;verticalAlign=middle;resizable=0;points=[];autosize=1;strokeColor=none;fillColor=none;" parent="1" vertex="1">
          <mxGeometry x="960" y="120" width="140" height="40" as="geometry" />
        </mxCell>
        <mxCell id="KIe1Nf1kpFy4A9aI_nfE-52" value="&lt;span style=&quot;font-size: 18px;&quot;&gt;Output&lt;/span&gt;" style="text;html=1;align=center;verticalAlign=middle;resizable=0;points=[];autosize=1;strokeColor=none;fillColor=none;" parent="1" vertex="1">
          <mxGeometry x="1300" y="120" width="80" height="40" as="geometry" />
        </mxCell>
        <mxCell id="KIe1Nf1kpFy4A9aI_nfE-53" value="Weeds detection" style="text;html=1;align=center;verticalAlign=middle;resizable=0;points=[];autosize=1;strokeColor=none;fillColor=none;" parent="1" vertex="1">
          <mxGeometry x="1200" y="235" width="110" height="30" as="geometry" />
        </mxCell>
        <mxCell id="KIe1Nf1kpFy4A9aI_nfE-54" value="" style="endArrow=classic;html=1;rounded=0;entryX=0.615;entryY=-0.009;entryDx=0;entryDy=0;entryPerimeter=0;" parent="1" target="KIe1Nf1kpFy4A9aI_nfE-7" edge="1">
          <mxGeometry width="50" height="50" relative="1" as="geometry">
            <mxPoint x="245" y="305" as="sourcePoint" />
            <mxPoint x="295" y="255" as="targetPoint" />
          </mxGeometry>
        </mxCell>
        <mxCell id="KIe1Nf1kpFy4A9aI_nfE-55" value="" style="endArrow=classic;html=1;rounded=0;" parent="1" edge="1">
          <mxGeometry width="50" height="50" relative="1" as="geometry">
            <mxPoint x="550" y="298.09" as="sourcePoint" />
            <mxPoint x="610" y="297" as="targetPoint" />
          </mxGeometry>
        </mxCell>
        <mxCell id="KIe1Nf1kpFy4A9aI_nfE-56" value="" style="endArrow=classic;html=1;rounded=0;entryX=0.615;entryY=-0.009;entryDx=0;entryDy=0;entryPerimeter=0;" parent="1" edge="1">
          <mxGeometry width="50" height="50" relative="1" as="geometry">
            <mxPoint x="870" y="297" as="sourcePoint" />
            <mxPoint x="930" y="296.5" as="targetPoint" />
          </mxGeometry>
        </mxCell>
        <mxCell id="KIe1Nf1kpFy4A9aI_nfE-57" value="" style="endArrow=classic;html=1;rounded=0;entryX=0.615;entryY=-0.009;entryDx=0;entryDy=0;entryPerimeter=0;" parent="1" edge="1">
          <mxGeometry width="50" height="50" relative="1" as="geometry">
            <mxPoint x="1160" y="297" as="sourcePoint" />
            <mxPoint x="1200" y="296.5" as="targetPoint" />
          </mxGeometry>
        </mxCell>
      </root>
    </mxGraphModel>
  </diagram>
</mxfile>
